HIERARCHY
ROOT hip
{
	OFFSET 0.000000 0.000000 0.000000 
	CHANNELS 6 Xposition Yposition Zposition Zrotation Xrotation Yrotation
	JOINT abdomen
	{
		OFFSET 0.000000 3.402643 0.000000 
		CHANNELS 3 Zrotation Xrotation Yrotation
		JOINT chest
		{
			OFFSET 0.000000 8.438565 -0.680529 
			CHANNELS 3 Zrotation Xrotation Yrotation
			JOINT neck
			{
				OFFSET 0.000000 10.207942 -0.272212 
				CHANNELS 3 Zrotation Xrotation Yrotation
				JOINT head
				{
					OFFSET 0.000000 3.130431 0.000000 
					CHANNELS 3 Zrotation Xrotation Yrotation
					End Site
					{
						OFFSET 0.000000 3.130435 0.000000 
					}
				}
			}
			JOINT lCollar
			{
				OFFSET 3.470700 6.669187 -0.816635 
				CHANNELS 3 Zrotation Xrotation Yrotation
				JOINT lShldr
				{
					OFFSET 3.198488 0.000000 0.000000 
					CHANNELS 3 Zrotation Xrotation Yrotation
					JOINT lForeArm
					{
						OFFSET 10.139888 0.000000 0.000000 
						CHANNELS 3 Zrotation Xrotation Yrotation
						JOINT lHand
						{
							OFFSET 8.370511 0.000000 0.000000 
							CHANNELS 3 Zrotation Xrotation Yrotation
							End Site
							{
								OFFSET 4.083176 0.000000 0.000000 
							}
						}
					}
				}
			}
			JOINT rCollar
			{
				OFFSET -3.470700 6.669187 -0.816635 
				CHANNELS 3 Zrotation Xrotation Yrotation
				JOINT rShldr
				{
					OFFSET -3.198488 0.000000 0.000000 
					CHANNELS 3 Zrotation Xrotation Yrotation
					JOINT rForeArm
					{
						OFFSET -10.139888 0.000000 0.000000 
						CHANNELS 3 Zrotation Xrotation Yrotation
						JOINT rHand
						{
							OFFSET -8.370511 0.000000 0.000000 
							CHANNELS 3 Zrotation Xrotation Yrotation
							End Site
							{
								OFFSET -4.083176 0.000000 0.000000 
							}
						}
					}
				}
			}
		}
	}
	JOINT lThigh
	{
		OFFSET 5.308129 -1.633274 1.361059 
		CHANNELS 3 Zrotation Xrotation Yrotation
		JOINT lShin
		{
			OFFSET -2.041588 -20.007561 0.000000 
			CHANNELS 3 Zrotation Xrotation Yrotation
			JOINT lFoot
			{
				OFFSET 0.000000 -19.190928 -1.224953 
				CHANNELS 3 Zrotation Xrotation Yrotation
				End Site
				{
					OFFSET 0.000000 -2.449906 4.627600 
				}
			}
		}
	}
	JOINT rThigh
	{
		OFFSET -5.308129 -1.633274 1.361059 
		CHANNELS 3 Zrotation Xrotation Yrotation
		JOINT rShin
		{
			OFFSET 2.041588 -20.007561 0.000000 
			CHANNELS 3 Zrotation Xrotation Yrotation
			JOINT rFoot
			{
				OFFSET 0.000000 -19.190928 -1.224953 
				CHANNELS 3 Zrotation Xrotation Yrotation
				End Site
				{
					OFFSET 0.000000 -2.449906 4.627600 
				}
			}
		}
	}
}
MOTION
Frames: 15
Frame Time: 0.016667
2.407020 43.658577 30.396400 -2.812500 20.449200 8.017270 4.288470 15.043000 1.545520 3.880020 -11.716100 6.536640 5.419830 23.764200 -7.614750 5.112150 18.208099 -3.371870 -1.998780 -0.069785 1.998780 -76.001602 6.950570 -9.478300 -1.080590 -2.101530 -43.379799 -0.095838 13.916000 0.088271 1.998780 -0.069785 -1.998780 75.610397 -16.406401 55.046299 0.090375 1.002700 24.951799 0.050549 45.806999 0.005577 -2.649870 -28.920700 -6.698320 2.329240 45.526402 1.742630 -5.307920 -9.789420 -17.614000 16.306601 -72.962898 32.465302 2.112220 76.377197 -6.743420 2.299110 -10.238500 23.292400 
2.364170 43.077778 31.619400 -2.675780 19.316401 8.828120 4.559030 14.996900 1.323450 3.907780 -11.941900 6.259590 4.845070 24.835899 -7.534420 4.754830 18.570801 -3.327190 -1.998780 -0.069785 1.998780 -74.957199 6.471810 -10.414100 -1.087410 -2.096330 -43.624100 -0.095773 14.082000 0.087916 1.998780 -0.069785 -1.998780 74.088203 -15.936900 53.381802 0.109204 1.007180 26.035299 0.054742 44.292999 -0.000487 -3.004020 -27.680300 -7.858400 2.381910 48.984600 1.749690 -6.155110 -10.576000 -19.296400 15.456600 -71.041702 32.171700 1.201140 74.370796 -5.782850 2.260490 -11.503100 20.559000 
2.306160 42.458080 32.883499 -2.636720 18.193399 9.619080 4.781810 15.039500 1.137950 3.935840 -12.136900 6.010180 4.518320 25.554600 -7.587660 4.506480 18.815901 -3.328680 -1.998780 -0.069785 1.998780 -73.624001 5.797050 -11.649400 -1.116590 -2.073530 -44.679199 -0.095901 13.750000 0.088625 1.998780 -0.069785 -1.998780 72.192902 -15.358400 51.703800 0.128449 1.012140 27.148100 0.059774 42.300999 -0.008014 -3.006350 -26.123800 -8.693620 2.434170 52.049801 1.726920 -6.626680 -10.181800 -21.469500 15.272800 -69.270302 32.598202 0.460394 72.556900 -4.992950 1.981280 -12.457000 17.618700 
2.218300 41.805977 34.201401 -2.539060 17.167900 10.322100 4.958100 15.200500 0.978870 3.886250 -12.320600 5.789280 4.712470 25.922300 -7.802280 4.477020 18.942900 -3.375470 -1.998780 -0.069785 1.998780 -71.845299 4.891030 -13.212000 -1.170540 -2.029010 -46.672100 -0.098131 12.715000 0.100832 1.998780 -0.069785 -1.998780 69.765198 -14.560300 49.973801 0.149270 1.017960 28.358500 0.066291 39.370998 -0.018270 -2.742520 -24.530100 -9.043670 2.477210 54.801701 1.704180 -6.619210 -8.954110 -23.626301 15.345100 -67.733902 33.554100 -0.029240 71.143898 -4.480850 1.547190 -12.567100 15.338200 
2.091890 41.122574 35.582001 -2.324220 16.308599 11.005600 5.055350 15.402700 0.857391 3.691080 -12.542200 5.599360 5.713820 26.021601 -8.239540 4.796620 19.029699 -3.467580 -1.998780 -0.069785 1.998780 -69.483398 3.787240 -15.221000 -1.244260 -1.962800 -49.495201 -0.098315 11.299000 0.103767 1.998780 -0.069785 -1.998780 66.806099 -13.563800 48.112701 0.173619 1.025380 29.783600 0.073079 35.768002 -0.029784 -2.279860 -22.913900 -8.847340 2.543080 57.102501 1.666640 -6.172270 -7.376080 -25.394400 15.086300 -66.572197 34.305698 -0.209080 70.427498 -4.287920 1.306700 -11.896100 14.793500 
1.922870 40.421074 37.026100 -2.050780 15.654300 11.816400 5.039880 15.549800 0.775268 3.363030 -12.821600 5.420090 7.373240 25.940599 -8.892570 5.375630 19.095699 -3.626260 -1.998780 -0.069785 1.998780 -66.552597 2.532560 -17.894100 -1.328540 -1.878380 -52.894299 -0.098926 10.019700 0.106505 1.998780 -0.069785 -1.998780 63.425301 -12.548700 46.100101 0.202386 1.035010 31.482000 0.078675 32.202999 -0.040205 -1.660900 -21.406200 -8.318780 2.637060 59.116501 1.560770 -5.690010 -6.200180 -26.699499 14.429600 -66.156303 34.380699 -0.127950 71.249199 -4.354930 1.329850 -11.194400 15.994700 
1.714320 39.738277 38.529999 -1.845700 15.185600 12.939400 4.981490 15.619900 0.717771 2.999070 -13.170000 5.223160 8.973810 25.739599 -9.641360 5.904670 19.132200 -3.821190 -1.998780 -0.069785 1.998780 -63.244499 1.115310 -21.418301 -1.414680 -1.780670 -56.605701 -0.088647 9.238490 0.107959 1.998780 -0.069785 -1.998780 59.837399 -11.754400 44.106899 0.234756 1.046990 33.414700 0.082566 29.274000 -0.048188 -0.817331 -19.695400 -7.718570 2.788390 60.482101 1.408890 -5.134890 -5.149880 -27.857599 13.051500 -66.566498 32.969398 0.431768 73.250298 -4.954460 1.453880 -10.554800 17.791800 
1.483410 39.115677 40.091999 -1.787110 14.882800 14.443200 5.021260 15.599100 0.576840 2.707450 -13.550200 4.926320 9.943170 25.497601 -10.224600 6.193990 19.120899 -3.998170 -1.998780 -0.069785 1.998780 -59.933899 -0.600433 -25.775499 -1.496310 -1.674810 -60.414398 -0.087849 8.857600 0.098775 1.998780 -0.069785 -1.998780 56.046600 -11.290200 42.403000 0.267987 1.060620 35.425598 0.099785 27.076000 -0.065043 0.218780 -17.761801 -7.449170 2.991190 60.933800 1.201490 -4.186790 -3.615950 -28.918501 10.849500 -67.856102 29.843399 1.516240 76.071800 -6.089820 1.585180 -10.594500 18.820499 
1.252640 38.591278 41.720699 -1.933590 14.755900 16.279301 5.169490 15.497000 0.339106 2.520080 -13.982100 4.509730 10.176200 25.267300 -10.558900 6.223440 19.042601 -4.127160 -1.998780 -0.069785 1.998780 -56.846298 -2.624490 -30.747801 -1.569810 -1.565220 -64.174004 -0.087508 8.662300 0.098724 1.998780 -0.069785 -1.998780 52.315201 -11.324000 41.154701 0.300403 1.075250 37.416801 0.096534 25.572001 -0.057850 1.376060 -15.790700 -7.651620 3.311650 60.693100 0.875438 -3.030280 -2.050120 -29.562000 7.454120 -69.539101 24.989401 3.061100 78.847198 -7.677800 1.620310 -11.001700 18.933001 
1.040330 38.168079 43.429298 -2.343750 14.795000 18.280899 5.273590 15.288600 0.086411 2.408430 -14.512800 4.003210 9.919550 25.102400 -10.716600 6.073160 18.936001 -4.232870 -1.998780 -0.069785 1.998780 -53.998299 -4.800250 -36.000900 -1.632870 -1.456780 -67.747704 -0.087417 8.545100 0.099687 1.998780 -0.069785 -1.998780 48.887901 -11.888800 40.264198 0.331361 1.090520 39.349499 0.097280 24.811001 -0.059726 2.680120 -13.758200 -8.294410 3.655640 59.585400 0.510299 -1.868660 -0.587348 -29.497700 2.662770 -70.987297 18.601900 4.846380 80.940300 -9.493170 1.491930 -10.864600 19.108700 
0.856533 37.859478 45.235298 -3.027340 14.960900 20.263201 5.211210 14.929000 -0.117291 2.318980 -15.188700 3.476320 9.502540 25.110001 -10.820600 5.873270 18.868700 -4.316410 -1.998780 -0.069785 1.998780 -51.369598 -7.030730 -41.051800 -1.686020 -1.351150 -71.115997 -0.087491 8.652530 0.098721 1.998780 -0.069785 -1.998780 45.865398 -12.731100 39.608101 0.362090 1.106990 41.301701 0.097457 24.625000 -0.060179 4.185120 -11.663400 -9.166050 4.073100 57.743698 0.084052 -0.795970 0.465617 -28.525101 -2.502510 -71.905296 11.936100 6.032640 81.841301 -10.703700 1.259520 -10.074900 19.861601 
0.702208 37.687279 47.160599 -3.955080 15.195300 21.962601 5.004300 14.437100 -0.251177 2.230020 -15.999200 2.977720 9.155630 25.406099 -10.851700 5.713980 18.928101 -4.363200 -1.998780 -0.069785 1.998780 -48.965199 -9.289680 -45.428699 -1.729810 -1.250220 -74.249802 -0.088498 9.160350 0.107935 1.998780 -0.069785 -1.998780 43.125599 -13.437200 39.122398 0.393883 1.125490 43.361301 0.097457 24.625000 -0.060179 5.876400 -9.196540 -10.097800 4.379940 54.478802 -0.218412 -0.007281 1.528360 -26.570999 -6.628620 -72.302696 6.396360 6.050410 81.909698 -10.720400 1.070150 -9.348750 20.927500 
0.578682 37.506180 49.178398 -4.970710 15.498000 23.124800 4.827420 13.904800 -0.395736 2.163230 -16.886101 2.485290 8.839590 26.007601 -10.635900 5.665250 19.143101 -4.330640 -1.998780 -0.069785 1.998780 -46.926498 -11.698900 -48.673000 -1.765250 -1.155160 -77.139397 -0.097983 10.058800 0.106482 1.998780 -0.069785 -1.998780 40.380901 -13.537600 38.917400 0.427609 1.146850 45.596600 0.097596 24.479000 -0.060536 7.622540 -6.038360 -11.120900 4.698910 49.895500 -0.543383 0.378024 1.959980 -23.367701 -9.212800 -72.904297 2.473850 5.894990 81.715103 -10.561600 1.026940 -9.129180 21.627701 
0.489341 37.535877 51.340401 -5.859370 15.839800 23.631901 4.721110 13.360800 -0.565194 2.052390 -17.801100 1.977620 8.470000 26.769300 -10.062000 5.726650 19.426100 -4.159950 -1.998780 -0.069785 1.998780 -45.252399 -14.222400 -50.706200 -1.792290 -1.070610 -79.667702 -0.098332 11.133000 0.104110 1.998780 -0.069785 -1.998780 37.643101 -12.899400 39.059399 0.463731 1.171860 48.056499 0.098048 23.990000 -0.061720 8.927890 -2.365590 -12.431200 5.390660 44.501598 -1.101700 -0.036768 0.709394 -18.382000 -10.021300 -73.306702 0.358711 5.486260 81.082603 -10.159000 1.142280 -9.288190 21.898399 
0.429063 37.593678 53.586601 -6.474610 16.201200 23.553699 4.606410 12.846300 -0.751208 1.818970 -18.695000 1.452980 7.939690 27.542500 -9.100210 5.818020 19.699100 -3.864580 -1.998780 -0.069785 1.998780 -43.884102 -16.735600 -51.764599 -1.810850 -1.003550 -81.649200 -0.098186 12.344000 0.101603 1.998780 -0.069785 -1.998780 35.095699 -11.636200 39.520901 0.501747 1.200780 50.730999 0.098687 23.278000 -0.063434 9.442350 2.162180 -14.368400 6.840560 37.906399 -1.962030 -1.368470 -2.938760 -11.066400 -9.840610 -73.843597 -0.615113 5.165980 80.684196 -9.841580 1.271770 -9.589510 21.814699 
